<?xml version="1.0" encoding="utf-8"?>
<!-- Generator: Adobe Illustrator 23.0.1, SVG Export Plug-In . SVG Version: 6.00 Build 0)  -->
<svg version="1.1" id="Layer_1" xmlns="http://www.w3.org/2000/svg" xmlns:xlink="http://www.w3.org/1999/xlink" x="0px" y="0px"
	 viewBox="0 0 184 45" style="enable-background:new 0 0 184 45;" xml:space="preserve">
<style type="text/css">
	.st0{fill:#101233;}
	.st1{fill:#ED1C24;}
</style>
<g>
	<g>
		<g>
			<g>
				<path class="st0" d="M3.55,37.84v6.59H0V26.67h6.46c2.1,0,3.68,0.5,4.74,1.51c1.06,1.01,1.6,2.37,1.6,4.1
					c0,1.69-0.55,3.04-1.65,4.05c-1.1,1.01-2.66,1.51-4.69,1.51H3.55z M9.2,32.28c0-0.89-0.24-1.57-0.73-2.04
					c-0.49-0.47-1.28-0.7-2.39-0.7H3.55V35h2.54C8.16,35,9.2,34.09,9.2,32.28z"/>
				<path class="st0" d="M18.66,26.67v17.75h-3.55V26.67H18.66z"/>
				<path class="st0" d="M35.41,28.21c1.46,1.14,2.42,2.69,2.89,4.65h-3.72c-0.39-0.96-0.99-1.71-1.8-2.26
					c-0.81-0.55-1.79-0.83-2.93-0.83c-0.94,0-1.79,0.24-2.54,0.7c-0.75,0.47-1.34,1.14-1.76,2.01c-0.42,0.87-0.63,1.89-0.63,3.07
					c0,1.16,0.21,2.17,0.63,3.04c0.42,0.87,1.01,1.54,1.76,2.01c0.75,0.47,1.6,0.7,2.54,0.7c1.14,0,2.12-0.28,2.93-0.83
					c0.81-0.55,1.41-1.31,1.8-2.26h3.72c-0.47,1.96-1.43,3.51-2.89,4.65c-1.46,1.14-3.29,1.71-5.51,1.71
					c-1.69,0-3.19-0.38-4.49-1.14c-1.3-0.76-2.31-1.83-3.02-3.21c-0.71-1.37-1.07-2.93-1.07-4.68c0-1.76,0.36-3.33,1.07-4.7
					c0.71-1.37,1.71-2.44,3.01-3.21c1.29-0.76,2.79-1.14,4.5-1.14C32.11,26.5,33.95,27.07,35.41,28.21z"/>
				<path class="st0" d="M55.68,26.67v17.75h-3.57v-7.72h-7.59v7.72h-3.55V26.67h3.55v7.19h7.59v-7.19H55.68z"/>
				<path class="st0" d="M69.71,40.86h-7.12l-1.26,3.57h-3.75l6.54-17.55h4.05l6.51,17.55h-3.75L69.71,40.86z M68.75,38.16
					l-2.62-7.49l-2.62,7.49H68.75z"/>
				<path class="st0" d="M90.2,28.09c1.42,1.06,2.34,2.5,2.74,4.31h-3.72c-0.35-0.8-0.91-1.45-1.67-1.92
					c-0.76-0.48-1.66-0.72-2.7-0.72c-1.02,0-1.93,0.24-2.72,0.7c-0.79,0.47-1.4,1.14-1.84,2.01c-0.44,0.87-0.65,1.89-0.65,3.07
					c0,1.86,0.5,3.31,1.5,4.35c1,1.04,2.36,1.56,4.09,1.56c1.27,0,2.37-0.38,3.28-1.13c0.91-0.75,1.5-1.8,1.77-3.14h-6.01v-2.54
					h8.98v3.42c-0.25,1.17-0.74,2.25-1.47,3.24c-0.73,0.99-1.69,1.78-2.87,2.38c-1.18,0.6-2.54,0.89-4.06,0.89
					c-1.74,0-3.28-0.38-4.61-1.14c-1.33-0.76-2.36-1.83-3.09-3.19c-0.73-1.37-1.09-2.93-1.09-4.69c0-1.76,0.36-3.32,1.09-4.69
					c0.73-1.37,1.76-2.43,3.08-3.21c1.32-0.77,2.86-1.16,4.6-1.16C86.99,26.5,88.78,27.03,90.2,28.09z"/>
				<path class="st0" d="M105.17,44.43l-4.15-6.92h-1.56v6.92h-3.55V26.67h6.76c2.06,0,3.63,0.5,4.72,1.51
					c1.08,1.01,1.62,2.33,1.62,3.97c0,1.34-0.37,2.46-1.12,3.37c-0.75,0.91-1.82,1.51-3.23,1.81l4.43,7.09H105.17z M99.46,35.07
					h2.92c2.03,0,3.04-0.9,3.04-2.69c0-0.86-0.25-1.52-0.74-2c-0.49-0.48-1.26-0.72-2.3-0.72h-2.92V35.07z"/>
				<path class="st0" d="M122.22,40.86h-7.12l-1.26,3.57h-3.75l6.54-17.55h4.05l6.51,17.55h-3.75L122.22,40.86z M121.26,38.16
					l-2.62-7.49l-2.62,7.49H121.26z"/>
				<path class="st0" d="M132.65,37.84v6.59h-3.55V26.67h6.46c2.1,0,3.68,0.5,4.74,1.51c1.06,1.01,1.6,2.37,1.6,4.1
					c0,1.69-0.55,3.04-1.65,4.05c-1.1,1.01-2.66,1.51-4.69,1.51H132.65z M138.31,32.28c0-0.89-0.24-1.57-0.73-2.04
					c-0.49-0.47-1.28-0.7-2.39-0.7h-2.54V35h2.54C137.27,35,138.31,34.09,138.31,32.28z"/>
				<path class="st0" d="M158.93,26.67v17.75h-3.57v-7.72h-7.59v7.72h-3.55V26.67h3.55v7.19h7.59v-7.19H158.93z"/>
				<path class="st0" d="M165.7,26.67v17.75h-3.55V26.67H165.7z"/>
			</g>
			<g>
				<polygon class="st1" points="167.97,26.59 171.73,26.59 175.53,32.95 171.88,32.95 				"/>
			</g>
			<g>
				<polygon class="st1" points="184,44.48 180.2,44.48 175.99,37.5 179.68,37.5 				"/>
			</g>
			<polygon class="st0" points="179.66,26.59 167.92,44.48 171.33,44.48 183.09,26.59 			"/>
		</g>
	</g>
	<g>
		<g>
			<path class="st1" d="M132.65,25.08h-2.05c0-6.15-5.01-11.16-11.16-11.16h-64.6c-6.15,0-11.16,5.01-11.16,11.16h-2.05
				c0-7.29,5.93-13.21,13.21-13.21h64.6C126.73,11.87,132.65,17.8,132.65,25.08z"/>
		</g>
		<g>
			<g>
				<polygon class="st1" points="107.79,9.91 105.24,9.91 101.41,2.67 72.92,2.67 69.61,9.91 67.13,9.91 71.47,0.42 102.76,0.42 
									"/>
			</g>
		</g>
		<g>
			<g>
				<polygon class="st1" points="63.02,9.91 60.76,9.91 60.76,7.95 54.54,7.95 54.54,9.91 52.29,9.91 52.29,5.7 63.02,5.7 				"/>
			</g>
		</g>
		<rect x="109.54" y="21.68" class="st1" width="12.74" height="3.56"/>
	</g>
</g>
</svg>
